<?xml version="1.0" encoding="UTF-8" standalone="no"?>
<!-- Created with Inkscape (http://www.inkscape.org/) -->

<svg
   width="540mm"
   height="660mm"
   viewBox="0 0 540 660"
   version="1.1"
   id="svg1"
   inkscape:version="1.3 (0e150ed6c4, 2023-07-21)"
   sodipodi:docname="logo if.svg"
   xmlns:inkscape="http://www.inkscape.org/namespaces/inkscape"
   xmlns:sodipodi="http://sodipodi.sourceforge.net/DTD/sodipodi-0.dtd"
   xmlns="http://www.w3.org/2000/svg"
   xmlns:svg="http://www.w3.org/2000/svg">
  <sodipodi:namedview
     id="namedview1"
     pagecolor="#ffffff"
     bordercolor="#000000"
     borderopacity="0.25"
     inkscape:showpageshadow="2"
     inkscape:pageopacity="0.0"
     inkscape:pagecheckerboard="0"
     inkscape:deskcolor="#d1d1d1"
     inkscape:document-units="mm"
     inkscape:zoom="0.091036795"
     inkscape:cx="-313.06023"
     inkscape:cy="2350.6979"
     inkscape:window-width="1366"
     inkscape:window-height="698"
     inkscape:window-x="0"
     inkscape:window-y="45"
     inkscape:window-maximized="1"
     inkscape:current-layer="layer1"
     showguides="true" />
  <defs
     id="defs1">
    <rect
       x="-13.730712"
       y="2320.4903"
       width="1672.4007"
       height="686.53559"
       id="rect3" />
    <inkscape:path-effect
       effect="fillet_chamfer"
       id="path-effect2"
       is_visible="true"
       lpeversion="1"
       nodesatellites_param="F,1,0,1,0,0.1,0,1 @ F,1,0,1,0,0.1,0,1 @ F,1,0,1,0,0.1,0,1 @ F,1,0,1,0,0.1,0,1"
       radius="10"
       unit="px"
       method="auto"
       mode="F"
       chamfer_steps="1"
       flexible="true"
       use_knot_distance="true"
       apply_no_radius="true"
       apply_with_radius="true"
       only_selected="false"
       hide_knots="false" />
    <inkscape:path-effect
       effect="fillet_chamfer"
       id="path-effect1"
       is_visible="true"
       lpeversion="1"
       nodesatellites_param="F,1,0,1,0,0.5,0,1 @ F,1,0,1,0,0.5,0,1 @ F,1,0,1,0,0.5,0,1 @ F,1,0,1,0,0.5,0,1"
       radius="50"
       unit="px"
       method="auto"
       mode="F"
       chamfer_steps="1"
       flexible="true"
       use_knot_distance="true"
       apply_no_radius="true"
       apply_with_radius="true"
       only_selected="false"
       hide_knots="false" />
    <inkscape:path-effect
       effect="fillet_chamfer"
       id="path-effect2-7"
       is_visible="true"
       lpeversion="1"
       nodesatellites_param="F,1,0,1,0,0.1,0,1 @ F,1,0,1,0,0.1,0,1 @ F,1,0,1,0,0.1,0,1 @ F,1,0,1,0,0.1,0,1"
       radius="10"
       unit="px"
       method="auto"
       mode="F"
       chamfer_steps="1"
       flexible="true"
       use_knot_distance="true"
       apply_no_radius="true"
       apply_with_radius="true"
       only_selected="false"
       hide_knots="false" />
    <inkscape:path-effect
       effect="fillet_chamfer"
       id="path-effect2-2"
       is_visible="true"
       lpeversion="1"
       nodesatellites_param="F,1,0,1,0,0.1,0,1 @ F,1,0,1,0,0.1,0,1 @ F,1,0,1,0,0.1,0,1 @ F,1,0,1,0,0.1,0,1"
       radius="10"
       unit="px"
       method="auto"
       mode="F"
       chamfer_steps="1"
       flexible="true"
       use_knot_distance="true"
       apply_no_radius="true"
       apply_with_radius="true"
       only_selected="false"
       hide_knots="false" />
    <inkscape:path-effect
       effect="fillet_chamfer"
       id="path-effect2-0"
       is_visible="true"
       lpeversion="1"
       nodesatellites_param="F,1,0,1,0,0.1,0,1 @ F,1,0,1,0,0.1,0,1 @ F,1,0,1,0,0.1,0,1 @ F,1,0,1,0,0.1,0,1"
       radius="10"
       unit="px"
       method="auto"
       mode="F"
       chamfer_steps="1"
       flexible="true"
       use_knot_distance="true"
       apply_no_radius="true"
       apply_with_radius="true"
       only_selected="false"
       hide_knots="false" />
    <inkscape:path-effect
       effect="fillet_chamfer"
       id="path-effect2-26"
       is_visible="true"
       lpeversion="1"
       nodesatellites_param="F,1,0,1,0,0.1,0,1 @ F,1,0,1,0,0.1,0,1 @ F,1,0,1,0,0.1,0,1 @ F,1,0,1,0,0.1,0,1"
       radius="10"
       unit="px"
       method="auto"
       mode="F"
       chamfer_steps="1"
       flexible="true"
       use_knot_distance="true"
       apply_no_radius="true"
       apply_with_radius="true"
       only_selected="false"
       hide_knots="false" />
    <inkscape:path-effect
       effect="fillet_chamfer"
       id="path-effect2-20"
       is_visible="true"
       lpeversion="1"
       nodesatellites_param="F,1,0,1,0,0.1,0,1 @ F,1,0,1,0,0.1,0,1 @ F,1,0,1,0,0.1,0,1 @ F,1,0,1,0,0.1,0,1"
       radius="10"
       unit="px"
       method="auto"
       mode="F"
       chamfer_steps="1"
       flexible="true"
       use_knot_distance="true"
       apply_no_radius="true"
       apply_with_radius="true"
       only_selected="false"
       hide_knots="false" />
    <inkscape:path-effect
       effect="fillet_chamfer"
       id="path-effect2-22"
       is_visible="true"
       lpeversion="1"
       nodesatellites_param="F,1,0,1,0,0.1,0,1 @ F,1,0,1,0,0.1,0,1 @ F,1,0,1,0,0.1,0,1 @ F,1,0,1,0,0.1,0,1"
       radius="10"
       unit="px"
       method="auto"
       mode="F"
       chamfer_steps="1"
       flexible="true"
       use_knot_distance="true"
       apply_no_radius="true"
       apply_with_radius="true"
       only_selected="false"
       hide_knots="false" />
    <inkscape:path-effect
       effect="fillet_chamfer"
       id="path-effect2-6"
       is_visible="true"
       lpeversion="1"
       nodesatellites_param="F,1,0,1,0,0.1,0,1 @ F,1,0,1,0,0.1,0,1 @ F,1,0,1,0,0.1,0,1 @ F,1,0,1,0,0.1,0,1"
       radius="10"
       unit="px"
       method="auto"
       mode="F"
       chamfer_steps="1"
       flexible="true"
       use_knot_distance="true"
       apply_no_radius="true"
       apply_with_radius="true"
       only_selected="false"
       hide_knots="false" />
    <inkscape:path-effect
       effect="fillet_chamfer"
       id="path-effect2-1"
       is_visible="true"
       lpeversion="1"
       nodesatellites_param="F,1,0,1,0,0.1,0,1 @ F,1,0,1,0,0.1,0,1 @ F,1,0,1,0,0.1,0,1 @ F,1,0,1,0,0.1,0,1"
       radius="10"
       unit="px"
       method="auto"
       mode="F"
       chamfer_steps="1"
       flexible="true"
       use_knot_distance="true"
       apply_no_radius="true"
       apply_with_radius="true"
       only_selected="false"
       hide_knots="false" />
  </defs>
  <g
     inkscape:label="Layer 1"
     inkscape:groupmode="layer"
     id="layer1">
    <path
       style="fill:#cd191e;stroke-width:4.89793;paint-order:markers fill stroke;fill-opacity:1"
       id="rect1"
       width="110"
       height="110"
       x="90"
       y="90"
       inkscape:path-effect="#path-effect1"
       sodipodi:type="rect"
       d="m 145,90 a 55,55 45 0 1 55,55 55,55 135 0 1 -55,55 55,55 45 0 1 -55,-55 55,55 135 0 1 55,-55 z" />
    <path
       style="fill:#2f9e41;fill-opacity:1;stroke-width:1.4034;paint-order:markers fill stroke"
       id="rect2"
       width="100"
       height="100"
       x="220"
       y="100"
       inkscape:path-effect="#path-effect2"
       sodipodi:type="rect"
       d="m 230,100 h 80 a 10,10 45 0 1 10,10 v 80 a 10,10 135 0 1 -10,10 h -80 a 10,10 45 0 1 -10,-10 v -80 a 10,10 135 0 1 10,-10 z" />
    <path
       style="fill:#2f9e41;stroke-width:1.4034;paint-order:markers fill stroke;fill-opacity:1"
       id="rect2-3"
       width="100"
       height="100"
       x="220"
       y="100"
       inkscape:path-effect="#path-effect2-7"
       sodipodi:type="rect"
       d="m 230,100 h 80 a 10,10 45 0 1 10,10 v 80 a 10,10 135 0 1 -10,10 h -80 a 10,10 45 0 1 -10,-10 v -80 a 10,10 135 0 1 10,-10 z"
       transform="translate(120)" />
    <path
       style="fill:#2f9e41;stroke-width:1.4034;paint-order:markers fill stroke;fill-opacity:1"
       id="rect2-1"
       width="100"
       height="100"
       x="220"
       y="100"
       inkscape:path-effect="#path-effect2-2"
       sodipodi:type="rect"
       d="m 230,100 h 80 a 10,10 45 0 1 10,10 v 80 a 10,10 135 0 1 -10,10 h -80 a 10,10 45 0 1 -10,-10 v -80 a 10,10 135 0 1 10,-10 z"
       transform="translate(-120,120)" />
    <path
       style="fill:#2f9e41;fill-opacity:1;stroke-width:1.4034;paint-order:markers fill stroke"
       id="rect2-36"
       width="100"
       height="100"
       x="220"
       y="100"
       inkscape:path-effect="#path-effect2-0"
       sodipodi:type="rect"
       d="m 230,100 h 80 a 10,10 45 0 1 10,10 v 80 a 10,10 135 0 1 -10,10 h -80 a 10,10 45 0 1 -10,-10 v -80 a 10,10 135 0 1 10,-10 z"
       transform="translate(0,120)" />
    <path
       style="fill:#2f9e41;stroke-width:1.4034;paint-order:markers fill stroke;fill-opacity:1"
       id="rect2-8"
       width="100"
       height="100"
       x="220"
       y="100"
       inkscape:path-effect="#path-effect2-26"
       sodipodi:type="rect"
       d="m 230,100 h 80 a 10,10 45 0 1 10,10 v 80 a 10,10 135 0 1 -10,10 h -80 a 10,10 45 0 1 -10,-10 v -80 a 10,10 135 0 1 10,-10 z"
       transform="translate(-120,240)" />
    <path
       style="fill:#2f9e41;stroke-width:1.4034;paint-order:markers fill stroke;fill-opacity:1"
       id="rect2-37"
       width="100"
       height="100"
       x="220"
       y="100"
       inkscape:path-effect="#path-effect2-20"
       sodipodi:type="rect"
       d="m 230,100 h 80 a 10,10 45 0 1 10,10 v 80 a 10,10 135 0 1 -10,10 h -80 a 10,10 45 0 1 -10,-10 v -80 a 10,10 135 0 1 10,-10 z"
       transform="translate(0,240)" />
    <path
       style="fill:#2f9e41;stroke-width:1.4034;paint-order:markers fill stroke;fill-opacity:1"
       id="rect2-9"
       width="100"
       height="100"
       x="220"
       y="100"
       inkscape:path-effect="#path-effect2-22"
       sodipodi:type="rect"
       d="m 230,100 h 80 a 10,10 45 0 1 10,10 v 80 a 10,10 135 0 1 -10,10 h -80 a 10,10 45 0 1 -10,-10 v -80 a 10,10 135 0 1 10,-10 z"
       transform="translate(120,240)" />
    <path
       style="fill:#2f9e41;stroke-width:1.4034;paint-order:markers fill stroke;fill-opacity:1"
       id="rect2-2"
       width="100"
       height="100"
       x="220"
       y="100"
       inkscape:path-effect="#path-effect2-6"
       sodipodi:type="rect"
       d="m 230,100 h 80 a 10,10 45 0 1 10,10 v 80 a 10,10 135 0 1 -10,10 h -80 a 10,10 45 0 1 -10,-10 v -80 a 10,10 135 0 1 10,-10 z"
       transform="translate(-120,360)" />
    <path
       style="fill:#2f9e41;fill-opacity:1;stroke-width:1.4034;paint-order:markers fill stroke"
       id="rect2-4"
       width="100"
       height="100"
       x="220"
       y="100"
       inkscape:path-effect="#path-effect2-1"
       sodipodi:type="rect"
       d="m 230,100 h 80 a 10,10 45 0 1 10,10 v 80 a 10,10 135 0 1 -10,10 h -80 a 10,10 45 0 1 -10,-10 v -80 a 10,10 135 0 1 10,-10 z"
       transform="translate(0,360)" />
  </g>
</svg>
